{"title":"Sex.and.the.City.2.2010.DVDRIP.XVID.FEEL-FREE","uid":5724905,"size":1747230102,"categoryP":"video","categoryS":"movies","magnet":"?xt=urn:btih:fe6c8856a3dcc7b4db818b92ab14723b6a6763a8&amp;dn=Sex.and.the.City.2.2010.DVDRIP.XVID.FEEL-FREE&amp;tr=udp%3A%2F%2Ftracker.openbittorrent.com%3A80&amp;tr=udp%3A%2F%2Fopen.demonii.com%3A1337&amp;tr=udp%3A%2F%2Ftracker.coppersurfer.tk%3A6969&amp;tr=udp%3A%2F%2Fexodus.desync.com%3A6969","seeders":0,"leechers":1,"uploader":"hiest","files":10,"time":1280426565,"description":"Genre:Comedy/Drama/Romance\nLanguage:English\nIMDb:http://www.imdb.com/title/tt1261945/\nSource:SWESUB.PAL.DVDR.iNTERNAL-KAFFEREP.Thanks\nSample:YES\nSubtitles: ROMANA\n\nGeneral\nComplete name :Sex.and.the.City.2.2010.DVDRIP.XVID.FEEL-FREE\nFormat : AVI\nFormat/Info : Audio Video Interleave\nFile size : 1.61 GiB\nDuration : 2h 20mn\nOverall bit rate : 1 639 Kbps\nVideo #0\nID : 0\nFormat : MPEG-4 Visual\nFormat profile : Simple@L3\nFormat settings, BVOP : Yes\nFormat settings, QPel : No\nFormat settings, GMC : No warppoints\nFormat settings, Matrix : Default (H.263)\nCodec ID : XVID\nCodec ID/Hint : XviD\nDuration : 2h 20mn\nBit rate : 1 499 Kbps\nWidth : 720 pixels\nHeight : 264 pixels\nDisplay aspect ratio : 2.727\nFrame rate : 25.000 fps\nResolution : 24 bits\nScan type : Progressive\nBits/(Pixel*Frame) : 0.315\nStream size : 1.47 GiB (91%)\nAudio #1\nID : 1\nFormat : MPEG Audio\nFormat version : Version 1\nFormat profile : Layer 3\nCodec ID : 55\nCodec ID/Hint : MP3\nDuration : 2h 20mn\nBit rate mode : Constant\nBit rate : 128 Kbps\nChannel(s) : 2 channels\nSampling rate : 44.1 KHz\nResolution : 16 bits\nStream size : 129 MiB (8%)\nAlignment : Aligned on interleaves\nInterleave, duration : 26 ms (0.65 video frame)\nWriting library : LAME3.97\nPlot:\nWhile wrestling with the pressures of life, love, and work in Manhattan, Carrie, Miranda,\nand Charlotte join Samantha for a trip to Morocco, where Samantha's ex is filming a new movie","torrent":{"xt":"urn:btih:fe6c8856a3dcc7b4db818b92ab14723b6a6763a8","amp;dn":"Sex.and.the.City.2.2010.DVDRIP.XVID.FEEL-FREE","amp;tr":["udp%3A%2F%2Ftracker.openbittorrent.com%3A80","udp%3A%2F%2Fopen.demonii.com%3A1337","udp%3A%2F%2Ftracker.coppersurfer.tk%3A6969","udp%3A%2F%2Fexodus.desync.com%3A6969"],"infoHash":"fe6c8856a3dcc7b4db818b92ab14723b6a6763a8","infoHashBuffer":{"type":"Buffer","data":[254,108,136,86,163,220,199,180,219,129,139,146,171,20,114,59,106,103,99,168]},"announce":[],"urlList":[]}}